<?xml version="1.0" encoding="UTF-8"?>
<svg id="Ebene_1" xmlns="http://www.w3.org/2000/svg" viewBox="0 0 500 500">
    <defs>
        <style>.cls-1{fill:#FFFFFF;}</style>
    </defs>
    <path class="cls-1"
          d="M229.89,46.38V13.42c0-6.16,4.99-11.15,11.15-11.15h11.15V40.8h5.58c3.08,0,5.58-2.5,5.58-5.58V2.27h5.58V35.23c0,6.16-4.99,11.16-11.16,11.16h-11.15V7.85h-5.61c-3.06,0-5.55,2.48-5.55,5.55V46.39h-5.57Z"/>
    <path class="cls-1"
          d="M190.37,54.12l-6.43-32.33c-1.2-6.04,2.72-11.92,8.76-13.12l10.94-2.18,7.52,37.8,5.47-1.09c3.02-.6,4.99-3.53,4.39-6.56l-6.43-32.33,5.47-1.09,6.43,32.33c1.2,6.04-2.72,11.92-8.76,13.12l-10.94,2.18-7.52-37.8-5.5,1.09c-3,.6-4.95,3.51-4.36,6.52l6.44,32.36-5.47,1.09h0Z"/>
    <path class="cls-1"
          d="M153.12,69.42l-12.61-30.45c-2.35-5.69,.34-12.22,6.03-14.57l10.31-4.27,14.75,35.6,5.16-2.14c2.85-1.18,4.19-4.44,3.02-7.29l-12.61-30.45,5.15-2.14,12.61,30.45c2.36,5.69-.34,12.22-6.04,14.58l-10.31,4.27-14.74-35.6-5.18,2.15c-2.83,1.17-4.17,4.42-3,7.24l12.63,30.49-5.15,2.14h0Z"/>
    <path class="cls-1"
          d="M119.57,91.69l-18.31-27.41c-3.42-5.12-2.04-12.05,3.08-15.47l9.27-6.2,21.41,32.04,4.64-3.1c2.56-1.71,3.25-5.18,1.54-7.74l-18.31-27.41,4.64-3.1,18.31,27.41c3.42,5.12,2.04,12.05-3.08,15.48l-9.27,6.2-21.41-32.04-4.66,3.12c-2.55,1.7-3.23,5.14-1.53,7.69l18.33,27.43-4.64,3.1h0Z"/>
    <path class="cls-1"
          d="M91.02,120.07l-23.31-23.31c-4.36-4.36-4.36-11.42,0-15.77l7.89-7.89,27.25,27.25,3.94-3.94c2.18-2.18,2.18-5.71,0-7.89l-23.31-23.3,3.94-3.94,23.3,23.3c4.36,4.36,4.36,11.42,0,15.78l-7.89,7.89-27.25-27.25-3.97,3.97c-2.16,2.16-2.16,5.68,0,7.84l23.33,23.33-3.94,3.94h.01Z"/>
    <path class="cls-1"
          d="M68.55,153.49l-27.41-18.31c-5.12-3.42-6.5-10.35-3.08-15.47l6.2-9.27,32.04,21.41,3.1-4.64c1.71-2.56,1.02-6.03-1.54-7.74l-27.41-18.31,3.1-4.64,27.41,18.31c5.12,3.42,6.5,10.35,3.08,15.48l-6.2,9.27-32.04-21.41-3.12,4.66c-1.7,2.55-1.02,5.99,1.53,7.69l27.43,18.33-3.1,4.64Z"/>
    <path class="cls-1"
          d="M53.02,190.65l-30.45-12.61c-5.69-2.35-8.39-8.88-6.03-14.57l4.27-10.31,35.6,14.74,2.14-5.16c1.18-2.85-.17-6.11-3.02-7.29l-30.45-12.61,2.14-5.15,30.45,12.61c5.69,2.36,8.39,8.88,6.04,14.58l-4.27,10.31-35.6-14.74-2.15,5.18c-1.17,2.83,.17,6.07,3,7.24l30.49,12.63-2.14,5.15h0Z"/>
    <path class="cls-1"
          d="M45.05,230.11l-32.33-6.43c-6.04-1.2-9.96-7.08-8.76-13.12l2.18-10.94,37.8,7.52,1.09-5.47c.6-3.02-1.36-5.95-4.39-6.56l-32.33-6.43,1.09-5.47,32.33,6.43c6.04,1.2,9.97,7.08,8.76,13.12l-2.18,10.94-37.8-7.52-1.09,5.5c-.6,3,1.35,5.92,4.36,6.52l32.36,6.44-1.09,5.47h0Z"/>
    <path class="cls-1"
          d="M44.93,270.38H11.97c-6.16,0-11.15-4.99-11.15-11.15v-11.15H39.35v-5.58c0-3.08-2.5-5.58-5.58-5.58H.82v-5.58H33.77c6.16,0,11.16,4.99,11.16,11.16v11.15H6.4v5.61c0,3.06,2.48,5.55,5.55,5.55H44.94v5.58h0Z"/>
    <path class="cls-1"
          d="M52.67,309.9l-32.33,6.43c-6.04,1.2-11.92-2.72-13.12-8.76l-2.18-10.94,37.8-7.52-1.09-5.47c-.6-3.02-3.53-4.99-6.56-4.39l-32.33,6.43-1.09-5.47,32.33-6.43c6.04-1.2,11.92,2.72,13.12,8.76l2.18,10.94-37.8,7.52,1.09,5.5c.6,3,3.51,4.95,6.52,4.36l32.36-6.44,1.09,5.47h0Z"/>
    <path class="cls-1"
          d="M67.97,347.14l-30.45,12.61c-5.69,2.35-12.22-.34-14.57-6.03l-4.27-10.31,35.6-14.75-2.14-5.16c-1.18-2.85-4.44-4.19-7.29-3.02l-30.45,12.61-2.14-5.15,30.45-12.61c5.69-2.36,12.22,.34,14.58,6.04l4.27,10.31-35.6,14.74,2.15,5.18c1.17,2.83,4.42,4.17,7.24,3l30.49-12.63,2.14,5.15h0Z"/>
    <path class="cls-1"
          d="M90.23,380.69l-27.41,18.31c-5.12,3.42-12.05,2.04-15.47-3.08l-6.2-9.27,32.04-21.41-3.1-4.64c-1.71-2.56-5.18-3.25-7.74-1.54l-27.41,18.31-3.1-4.64,27.41-18.31c5.12-3.42,12.05-2.04,15.48,3.08l6.2,9.27-32.04,21.41,3.12,4.66c1.7,2.55,5.14,3.23,7.69,1.53l27.43-18.33,3.1,4.64h0Z"/>
    <path class="cls-1"
          d="M118.62,409.25l-23.31,23.31c-4.36,4.36-11.42,4.36-15.77,0l-7.89-7.89,27.25-27.25-3.94-3.94c-2.18-2.18-5.71-2.18-7.89,0l-23.3,23.31-3.94-3.94,23.3-23.3c4.36-4.36,11.42-4.36,15.78,0l7.89,7.89-27.25,27.25,3.97,3.97c2.16,2.16,5.68,2.16,7.84,0l23.33-23.33,3.94,3.94h0Z"/>
    <path class="cls-1"
          d="M152.04,431.72l-18.31,27.41c-3.42,5.12-10.35,6.5-15.47,3.08l-9.27-6.2,21.41-32.04-4.64-3.1c-2.56-1.71-6.03-1.02-7.74,1.54l-18.31,27.41-4.64-3.1,18.31-27.41c3.42-5.12,10.35-6.5,15.48-3.08l9.27,6.2-21.41,32.04,4.66,3.12c2.55,1.7,5.99,1.02,7.69-1.53l18.33-27.43,4.64,3.1Z"/>
    <path class="cls-1"
          d="M189.2,447.24l-12.61,30.45c-2.35,5.69-8.88,8.39-14.57,6.03l-10.31-4.27,14.74-35.6-5.16-2.14c-2.85-1.18-6.11,.17-7.29,3.02l-12.61,30.45-5.15-2.14,12.61-30.45c2.36-5.69,8.88-8.39,14.58-6.04l10.31,4.27-14.74,35.6,5.18,2.15c2.83,1.17,6.07-.17,7.24-3l12.63-30.49,5.15,2.14h0Z"/>
    <path class="cls-1"
          d="M228.66,455.22l-6.43,32.33c-1.2,6.04-7.08,9.96-13.12,8.76l-10.94-2.18,7.52-37.8-5.47-1.09c-3.02-.6-5.95,1.36-6.56,4.39l-6.43,32.33-5.47-1.09,6.43-32.33c1.2-6.04,7.08-9.97,13.12-8.76l10.94,2.18-7.52,37.8,5.5,1.09c3,.6,5.92-1.35,6.52-4.36l6.44-32.36,5.47,1.09h0Z"/>
    <path class="cls-1"
          d="M268.93,455.34v32.96c0,6.16-4.99,11.15-11.15,11.15h-11.15v-38.54h-5.58c-3.08,0-5.58,2.5-5.58,5.58v32.96h-5.58v-32.96c0-6.16,4.99-11.16,11.16-11.16h11.15v38.54h5.61c3.06,0,5.55-2.48,5.55-5.55v-33h5.57Z"/>
    <path class="cls-1"
          d="M308.45,447.6l6.43,32.33c1.2,6.04-2.72,11.92-8.76,13.12l-10.94,2.18-7.52-37.8-5.47,1.09c-3.02,.6-4.99,3.53-4.39,6.56l6.43,32.33-5.47,1.09-6.43-32.33c-1.2-6.04,2.72-11.92,8.76-13.12l10.94-2.18,7.52,37.8,5.5-1.09c3-.6,4.95-3.51,4.36-6.52l-6.44-32.36,5.47-1.09h0Z"/>
    <path class="cls-1"
          d="M345.69,432.3l12.61,30.45c2.35,5.69-.34,12.22-6.03,14.57l-10.31,4.27-14.75-35.6-5.16,2.14c-2.85,1.18-4.19,4.44-3.02,7.29l12.61,30.45-5.15,2.14-12.61-30.45c-2.36-5.69,.34-12.22,6.04-14.58l10.31-4.27,14.74,35.6,5.18-2.15c2.83-1.17,4.17-4.42,3-7.24l-12.63-30.49,5.15-2.14h0Z"/>
    <path class="cls-1"
          d="M379.24,410.03l18.31,27.41c3.42,5.12,2.04,12.05-3.08,15.47l-9.27,6.2-21.41-32.04-4.64,3.1c-2.56,1.71-3.25,5.18-1.54,7.74l18.31,27.41-4.64,3.1-18.31-27.41c-3.42-5.12-2.04-12.05,3.08-15.48l9.27-6.2,21.41,32.04,4.66-3.12c2.55-1.7,3.23-5.14,1.53-7.69l-18.33-27.43,4.64-3.1h0Z"/>
    <path class="cls-1"
          d="M407.8,381.64l23.31,23.31c4.36,4.36,4.36,11.42,0,15.77l-7.89,7.89-27.25-27.25-3.94,3.94c-2.18,2.18-2.18,5.71,0,7.89l23.31,23.3-3.94,3.94-23.3-23.3c-4.36-4.36-4.36-11.42,0-15.78l7.89-7.89,27.25,27.25,3.97-3.97c2.16-2.16,2.16-5.68,0-7.84l-23.33-23.33,3.94-3.94h-.01Z"/>
    <path class="cls-1"
          d="M430.27,348.23l27.41,18.31c5.12,3.42,6.5,10.35,3.08,15.47l-6.2,9.27-32.04-21.41-3.1,4.64c-1.71,2.56-1.02,6.03,1.54,7.74l27.41,18.31-3.1,4.64-27.41-18.31c-5.12-3.42-6.5-10.35-3.08-15.48l6.2-9.27,32.04,21.41,3.12-4.66c1.7-2.55,1.02-5.99-1.53-7.69l-27.43-18.33,3.1-4.64h0Z"/>
    <path class="cls-1"
          d="M445.79,311.07l30.45,12.61c5.69,2.35,8.39,8.88,6.03,14.57l-4.27,10.31-35.6-14.74-2.14,5.16c-1.18,2.85,.17,6.11,3.02,7.29l30.45,12.61-2.14,5.15-30.45-12.61c-5.69-2.36-8.39-8.88-6.04-14.58l4.27-10.31,35.6,14.74,2.15-5.18c1.17-2.83-.17-6.07-3-7.24l-30.49-12.63,2.14-5.15h0Z"/>
    <path class="cls-1"
          d="M453.77,271.6l32.33,6.43c6.04,1.2,9.96,7.08,8.76,13.12l-2.18,10.94-37.8-7.52-1.09,5.47c-.6,3.02,1.36,5.95,4.39,6.56l32.33,6.43-1.09,5.47-32.33-6.43c-6.04-1.2-9.97-7.08-8.76-13.12l2.18-10.94,37.8,7.52,1.09-5.5c.6-3-1.35-5.92-4.36-6.52l-32.36-6.44,1.09-5.47h0Z"/>
    <path class="cls-1"
          d="M453.88,231.34h32.96c6.16,0,11.15,4.99,11.15,11.15v11.15h-38.54v5.58c0,3.08,2.5,5.58,5.58,5.58h32.96v5.58h-32.96c-6.16,0-11.16-4.99-11.16-11.16v-11.15h38.54v-5.61c0-3.06-2.48-5.55-5.55-5.55h-33v-5.58h0Z"/>
    <path class="cls-1"
          d="M446.15,191.82l32.33-6.43c6.04-1.2,11.92,2.72,13.12,8.76l2.18,10.94-37.8,7.52,1.09,5.47c.6,3.02,3.53,4.99,6.56,4.39l32.33-6.43,1.09,5.47-32.33,6.43c-6.04,1.2-11.92-2.72-13.12-8.76l-2.18-10.94,37.8-7.52-1.09-5.5c-.6-3-3.51-4.95-6.52-4.36l-32.36,6.44-1.09-5.47h0Z"/>
    <path class="cls-1"
          d="M430.85,154.58l30.45-12.61c5.69-2.35,12.22,.34,14.57,6.03l4.27,10.31-35.6,14.75,2.14,5.16c1.18,2.85,4.44,4.19,7.29,3.02l30.45-12.61,2.14,5.15-30.45,12.61c-5.69,2.36-12.22-.34-14.58-6.04l-4.27-10.31,35.6-14.74-2.15-5.18c-1.17-2.83-4.42-4.17-7.24-3l-30.49,12.63-2.14-5.15h0Z"/>
    <path class="cls-1"
          d="M408.58,121.02l27.41-18.31c5.12-3.42,12.05-2.04,15.47,3.08l6.2,9.27-32.04,21.41,3.1,4.64c1.71,2.56,5.18,3.25,7.74,1.54l27.41-18.31,3.1,4.64-27.41,18.31c-5.12,3.42-12.05,2.04-15.48-3.08l-6.2-9.27,32.04-21.41-3.12-4.66c-1.7-2.55-5.14-3.23-7.69-1.53l-27.43,18.33-3.1-4.64h0Z"/>
    <path class="cls-1"
          d="M380.19,92.47l23.31-23.31c4.36-4.36,11.42-4.36,15.77,0l7.89,7.89-27.25,27.25,3.94,3.94c2.18,2.18,5.71,2.18,7.89,0l23.3-23.31,3.94,3.94-23.3,23.3c-4.36,4.36-11.42,4.36-15.78,0l-7.89-7.89,27.25-27.25-3.97-3.97c-2.16-2.16-5.68-2.16-7.84,0l-23.33,23.33-3.94-3.94h0Z"/>
    <path class="cls-1"
          d="M346.78,70l18.31-27.41c3.42-5.12,10.35-6.5,15.47-3.08l9.27,6.2-21.41,32.04,4.64,3.1c2.56,1.71,6.03,1.02,7.74-1.54l18.31-27.41,4.64,3.1-18.31,27.41c-3.42,5.12-10.35,6.5-15.48,3.08l-9.27-6.2,21.41-32.04-4.66-3.12c-2.55-1.7-5.99-1.02-7.69,1.53l-18.33,27.43-4.64-3.1h0Z"/>
    <path class="cls-1"
          d="M309.62,54.47l12.61-30.45c2.35-5.69,8.88-8.39,14.57-6.03l10.31,4.27-14.74,35.6,5.16,2.14c2.85,1.18,6.11-.17,7.29-3.02l12.61-30.45,5.15,2.14-12.61,30.45c-2.36,5.69-8.88,8.39-14.58,6.04l-10.31-4.27,14.74-35.6-5.18-2.15c-2.83-1.17-6.07,.17-7.24,3l-12.63,30.49-5.15-2.14h0Z"/>
    <path class="cls-1"
          d="M270.15,46.5l6.43-32.33c1.2-6.04,7.08-9.96,13.12-8.76l10.94,2.18-7.52,37.8,5.47,1.09c3.02,.6,5.95-1.36,6.56-4.39l6.43-32.33,5.47,1.09-6.43,32.33c-1.2,6.04-7.08,9.97-13.12,8.76l-10.94-2.18,7.52-37.8-5.5-1.09c-3-.6-5.92,1.35-6.52,4.36l-6.44,32.36-5.47-1.09h0Z"/>
</svg>